#!OML:ASF H:\IndianDance\Patient Classification 1\Patient 1\Session 1\dancer.ASF
:FULLY-SPECIFIED
:DEGREES
3235
root -5.17893 14.8547 12.2633 -182.155 20.7145 -544.639
lowerback 13.9476 6.7081 -5.65362
upperback -3.76428 7.84597 -1.5795
thorax -12.5358 4.05368 -0.549504
lowerneck -17.661 -3.64668 -4.25353
upperneck 13.7711 -5.47905 10.4937
head 7.57789 -1.7258 3.53961
rclavicle -3.92538e-014 1.98785e-015
rhumerus 1.87262 49.6253 -23.3233
rradius 106.15
rwrist 13.9621
rhand -43.9944 47.5034
rfingers 7.12502
rthumb -16.8158 18.2115
lclavicle -3.92538e-014 1.98785e-015
lhumerus 4.41197 32.3017 2.59925
lradius 39.8215
lwrist 45.528
lhand -12.9589 -310.877
lfingers 7.12502
lthumb 13.1328 1158.69
rfemur -71.1075 -33.2314 28.1342
rtibia 104.459
rfoot 36.9097 1.0441
rtoes 36.2794
lfemur -6.7307 16.5278 -25.8897
ltibia 37.2777
lfoot -24.0842 9.49235
ltoes 5.4609
3236
root -5.20989 14.8361 12.2555 -183 20.6592 -544.74
lowerback 14.781 6.65707 -5.13045
upperback -3.45873 7.80476 -1.71364
thorax -12.5778 3.97752 -1.03795
lowerneck -17.5927 -3.88262 -4.50618
upperneck 13.8518 -5.74896 10.4415
head 7.6187 -1.87648 3.53143
rclavicle -1.37553e-013 3.3197e-014
rhumerus 2.84129 50.5961 -22.8149
rradius 105.688
rwrist 14.8577
rhand -43.4688 47.6853
rfingers 7.12502
rthumb -16.3097 18.3512
lclavicle -1.37553e-013 3.3197e-014
lhumerus 3.46373 27.5726 1.6989
lradius 41.761
lwrist 42.3139
lhand -7.74618 -313.672
lfingers 7.12502
lthumb 18.1531 1155.5
rfemur -74.4471 -34.8858 30.5949
rtibia 108.488
rfoot 38.721 0.429322
rtoes 37.7672
lfemur -5.82126 17.1742 -25.7544
ltibia 37.325
lfoot -24.3142 9.36577
ltoes 4.47561
3237
root -5.24061 14.8221 12.2414 -183.536 20.488 -544.378
lowerback 15.3389 6.52656 -4.19369
upperback -3.18803 7.77527 -1.69042
thorax -12.4602 3.88808 -1.54947
lowerneck -17.4471 -4.0606 -4.68954
upperneck 13.9142 -5.93557 10.2459
head 7.62622 -2.00271 3.47375
rclavicle -2.03879e-014 7.7526e-015
rhumerus 3.96181 51.5466 -22.0591
rradius 105.899
rwrist 14.6393
rhand -43.0275 49.2283
rfingers 7.12502
rthumb -15.8849 19.8599
lclavicle -2.03879e-014 7.7526e-015
lhumerus 2.66692 22.6088 0.777703
lradius 44.6076
lwrist 42.5354
lhand -6.06143 -314.039
lfingers 7.12502
lthumb 19.7733 1154.98
rfemur -78.0019 -36.5339 33.9406
rtibia 112.328
rfoot 39.9779 0.0532906
rtoes 38.1998
lfemur -5.09672 17.5681 -25.2238
ltibia 37.4722
lfoot -24.6128 9.14178
ltoes 4.45897
3238
root -5.26953 14.8095 12.223 -183.889 20.205 -543.886
lowerback 15.7569 6.33596 -3.10943
upperback -3.00173 7.712 -1.6638
thorax -12.3384 3.7775 -2.12011
lowerneck -17.3146 -4.20261 -4.84333
upperneck 14.1506 -6.08239 9.9992
head 7.68714 -2.1073 3.40101
rclavicle 2.39908e-014 -2.62396e-014
rhumerus 5.05941 52.3076 -21.2795
rradius 105.811
rwrist 15.3921
rhand -42.8792 50.331
rfingers 7.12502
rthumb -15.7421 20.9512
lclavicle 2.39908e-014 -2.62396e-014
lhumerus 2.04504 17.9371 0.185149
lradius 48.2485
lwrist 44.8559
lhand -7.22524 -315.117
lfingers 7.12502
lthumb 18.6542 1154.01
rfemur -81.8814 -38.0844 37.7898
rtibia 115.977
rfoot 41.1814 -0.227668
rtoes 39.4213
lfemur -4.55561 17.6855 -24.6267
ltibia 37.7186
lfoot -24.9702 8.8371
ltoes 4.93029
3239
root -5.29606 14.7976 12.2017 -184.104 19.8264 -543.26
lowerback 16.0797 6.18882 -1.88792
upperback -2.87737 7.74326 -1.68701
thorax -12.2081 3.70392 -2.84075
lowerneck -17.1534 -4.39617 -4.78711
upperneck 14.3713 -6.34028 9.739
head 7.74021 -2.25085 3.27562
rclavicle 2.78236e-014 -2.72335e-014
rhumerus 5.65041 52.8479 -20.7371
rradius 105.776
rwrist 16.509
rhand -43.0476 51.6015
rfingers 7.12502
rthumb -15.9042 22.2346
lclavicle 2.78236e-014 -2.72335e-014
lhumerus 2.01984 13.7888 0.170853
lradius 52.3298
lwrist 47.6246
lhand -10.2149 -315.05
lfingers 7.12502
lthumb 15.7767 1154.33
rfemur -85.97 -39.4148 42.1598
rtibia 119.373
rfoot 42.3602 0.213114
rtoes 39.5275
lfemur -4.19459 17.5354 -23.9596
ltibia 38.1144
lfoot -25.3126 8.67958
ltoes 4.75312
3240
root -5.32211 14.7801 12.1789 -184.27 19.346 -542.818
lowerback 16.2347 5.96041 -0.914547
upperback -2.79693 7.62567 -1.72831
thorax -12.068 3.58165 -3.39348
lowerneck -16.8978 -4.49075 -4.6119
upperneck 14.6232 -6.47695 9.39187
head 7.76961 -2.33972 3.11814
rclavicle -3.78561e-014 -1.59028e-014
rhumerus 6.39723 53.2531 -20.2304
rradius 105.591
rwrist 17.9445
rhand -43.2063 52.4196
rfingers 7.12502
rthumb -16.057 23.0649
lclavicle -3.78561e-014 -1.59028e-014
lhumerus 1.71024 9.90785 0.203865
lradius 56.6686
lwrist 49.1856
lhand -11.496 -316.103
lfingers 7.12502
lthumb 14.5426 1153.37
rfemur -90.5505 -40.4657 46.6335
rtibia 122.632
rfoot 43.644 -0.465148
rtoes 41.0629
lfemur -4.03886 17.1891 -23.5508
ltibia 38.6267
lfoot -25.5895 8.62598
ltoes 4.12113
3241
root -5.3453 14.7459 12.1532 -184.459 18.8184 -542.518
lowerback 16.2986 5.76007 -0.183729
upperback -2.70047 7.49919 -1.79306
thorax -11.8921 3.47538 -3.82767
lowerneck -16.799 -4.60336 -4.42881
upperneck 14.9753 -6.6499 9.11005
head 7.86414 -2.42933 2.97617
rclavicle -1.05343e-013 3.37934e-015
rhumerus 7.19638 53.4895 -19.6572
rradius 105.361
rwrist 19.0551
rhand -43.2202 52.6307
rfingers 7.12502
rthumb -16.0704 23.2771
lclavicle -1.05343e-013 3.37934e-015
lhumerus 1.42983 6.23029 0.335559
lradius 61.201
lwrist 50.5987
lhand -13.9775 -318.285
lfingers 7.12502
lthumb 12.1508 1151.34
rfemur -95.1844 -41.1746 51.5107
rtibia 125.736
rfoot 44.7744 0.484581
rtoes 39.4945
lfemur -3.98389 16.64 -23.3377
ltibia 39.2707
lfoot -25.9526 8.54217
ltoes 4.11592
3242
root -5.36454 14.7142 12.1295 -184.595 18.2946 -542.29
lowerback 16.3281 5.87457 0.400436
upperback -2.58784 7.7867 -1.58246
thorax -11.718 3.58361 -3.98186
lowerneck -16.6165 -5.06508 -5.46884
upperneck 15.2948 -7.07553 9.12061
head 8.00532 -2.6956 3.10038
rclavicle -1.61823e-014 -3.18055e-015
rhumerus 7.17717 53.463 -18.536
rradius 105.522
rwrist 19.5434
rhand -43.0585 53.0264
rfingers 7.12502
rthumb -15.9147 23.6603
lclavicle -1.61823e-014 -3.18055e-015
lhumerus 1.81644 2.89882 1.64831
lradius 65.5483
lwrist 50.011
lhand -14.8658 -321.471
lfingers 7.12502
lthumb 11.2942 1148.2
rfemur -99.9337 -41.3105 56.1852
rtibia 128.581
rfoot 46.2359 -0.0287946
rtoes 40.0386
lfemur -4.07548 16.1015 -23.2139
ltibia 39.9879
lfoot -26.2546 8.54765
ltoes 3.77776
3243
root -5.38554 14.6775 12.1055 -184.73 17.7232 -542.208
lowerback 16.3037 5.91944 0.772979
upperback -2.49314 7.93138 -1.46471
thorax -11.5542 3.6377 -4.08046
lowerneck -16.4879 -5.07499 -6.18792
upperneck 15.5688 -7.48373 9.11067
head 8.12685 -3.18043 3.13177
rclavicle 9.94607e-014 -8.44835e-015
rhumerus 7.21327 53.3468 -17.546
rradius 105.836
rwrist 19.7151
rhand -42.815 52.9423
rfingers 7.12502
rthumb -15.6802 23.5576
lclavicle 9.94607e-014 -8.44835e-015
lhumerus 1.95411 -0.533366 2.31768
lradius 70.2592
lwrist 48.2235
lhand -14.6396 -325.433
lfingers 7.12502
lthumb 11.5124 1144.23
rfemur -104.526 -40.7877 60.843
rtibia 131.191
rfoot 47.4874 -0.0761871
rtoes 39.2742
lfemur -4.26347 15.5067 -23.295
ltibia 40.7588
lfoot -26.6076 8.50563
ltoes 4.12149
3244
root -5.40256 14.6392 12.082 -184.918 17.2221 -542.169
lowerback 16.3586 5.89505 0.977693
upperback -2.45196 7.94369 -1.42516
thorax -11.5162 3.63282 -4.15502
lowerneck -16.421 -5.21777 -6.26473
upperneck 15.9826 -7.66142 8.86914
head 8.25952 -3.28994 3.04223
rclavicle 2.08413e-014 1.78906e-015
rhumerus 7.28809 53.197 -16.8548
rradius 106.266
rwrist 19.6517
rhand -42.5423 52.8208
rfingers 7.12502
rthumb -15.4176 23.4158
lclavicle 2.08413e-014 1.78906e-015
lhumerus 2.08424 -3.51563 2.8756
lradius 74.4057
lwrist 44.8281
lhand -12.8392 -330.028
lfingers 7.12502
lthumb 13.2482 1139.53
rfemur -108.5 -39.6644 64.952
rtibia 133.446
rfoot 48.593 -0.528885
rtoes 38.6795
lfemur -4.39953 15.0295 -23.4061
ltibia 41.509
lfoot -26.8871 8.73631
ltoes 3.88341
3245
root -5.41542 14.599 12.0581 -185.211 16.7784 -542.235
lowerback 16.4489 5.87532 0.980263
upperback -2.38722 7.92084 -1.40095
thorax -11.5001 3.62376 -4.13035
lowerneck -16.3121 -5.23985 -6.15176
upperneck 16.351 -7.7094 8.57662
head 8.34948 -3.33519 2.92152
rclavicle -8.96084e-014 -1.41137e-014
rhumerus 7.34597 52.9449 -16.2313
rradius 106.827
rwrist 19.3931
rhand -42.2271 52.6788
rfingers 7.12502
rthumb -15.1139 23.2506
lclavicle -8.96084e-014 -1.41137e-014
lhumerus 2.08496 -6.29356 3.3919
lradius 78.6917
lwrist 40.2925
lhand -10.4615 -333.93
lfingers 7.12502
lthumb 15.5391 1135.47
rfemur -111.829 -38.1157 68.4163
rtibia 135.407
rfoot 49.3936 -1.55144
rtoes 38.6289
lfemur -4.38713 14.6907 -23.5595
ltibia 42.2084
lfoot -27.275 8.76551
ltoes 4.17984
3246
root -5.42765 14.5588 12.0343 -185.581 16.4364 -542.347
lowerback 16.6845 5.86182 0.836801
upperback -2.32459 7.88123 -1.33277
thorax -11.5985 3.61233 -3.99309
lowerneck -16.3252 -5.21389 -6.03266
upperneck 16.7836 -7.69483 8.29683
head 8.47838 -3.34597 2.80997
rclavicle -8.321e-015 2.18663e-015
rhumerus 7.43764 52.6032 -15.595
rradius 107.489
rwrist 19.1498
rhand -42.1283 52.7603
rfingers 7.12502
rthumb -15.0188 23.325
lclavicle -8.321e-015 2.18663e-015
lhumerus 1.97748 -8.83908 4.04763
lradius 82.9774
lwrist 35.4152
lhand -7.25748 -337.787
lfingers 7.12502
lthumb 18.6232 1131.34
rfemur -114.116 -36.4846 70.6689
rtibia 136.81
rfoot 49.9675 -6.75073
rtoes 43.7425
lfemur -4.24186 14.438 -23.737
ltibia 42.8087
lfoot -27.6009 8.83233
ltoes 4.43765
3247
root -5.43558 14.5209 12.0101 -186.087 16.1365 -542.583
lowerback 17.0574 5.8208 0.511924
upperback -2.22222 7.7719 -1.21327
thorax -11.7674 3.5791 -3.69674
lowerneck -16.3597 -5.10953 -6.12115
upperneck 17.1701 -7.52492 8.10166
head 8.59599 -3.2869 2.78146
rclavicle 1.7198e-014 -1.05853e-014
rhumerus 7.69329 52.112 -14.8812
rradius 108.333
rwrist 18.7527
rhand -41.7046 53.0273
rfingers 7.12502
rthumb -14.6106 23.562
lclavicle 1.7198e-014 -1.05853e-014
lhumerus 1.68523 -11.4061 4.78555
lradius 87.5953
lwrist 30.759
lhand -4.05304 -341.549
lfingers 7.12502
lthumb 21.703 1127.25
rfemur -116.161 -34.6782 72.6263
rtibia 138.099
rfoot 50.4685 -8.33824
rtoes 43.9609
lfemur -3.89939 14.3811 -23.9335
ltibia 43.28
lfoot -27.8741 8.69591
ltoes 4.88467
3248
root -5.44221 14.4833 11.9833 -186.672 15.8795 -542.976
lowerback 17.465 5.85893 0.0284789
upperback -2.11231 7.72482 -1.19065
thorax -11.9508 3.58325 -3.43787
lowerneck -16.3298 -4.98947 -5.89294
upperneck 17.4423 -7.37698 7.77461
head 8.64826 -3.23479 2.65392
rclavicle 1.44756e-014 -3.55328e-015
rhumerus 7.40029 51.5024 -14.6085
rradius 109.246
rwrist 18.6012
rhand -41.8988 53.1318
rfingers 7.12502
rthumb -14.7977 23.6801
lclavicle 1.44756e-014 -3.55328e-015
lhumerus 1.45218 -13.9251 5.60671
lradius 92.339
lwrist 26.3765
lhand -1.75478 -345.174
lfingers 7.12502
lthumb 23.9086 1123.36
rfemur -117.657 -32.9803 73.8608
rtibia 139.094
rfoot 50.8627 -9.50143
rtoes 43.7671
lfemur -3.43915 14.4121 -24.2817
ltibia 43.6008
lfoot -28.004 8.86762
ltoes 4.33139
